
<?xml version="1.0" encoding="utf-8"?>
<!-- Generator: Adobe Illustrator 21.1.0, SVG Export Plug-In . SVG Version: 6.00 Build 0)  -->
<svg id="sws" xmlns="http://www.w3.org/2000/svg" viewBox="0 0 617 617">
<style type="text/css">
	.st0{fill:none;stroke:#000000;stroke-width:35;stroke-miterlimit:10;}
	.st1{fill:none;stroke:#3C3CCE;stroke-width:35;stroke-miterlimit:10;}
</style>
<rect x="253.4" y="254.4" class="st0" width="109" height="109"/>
<path class="st0" d="M253.4,199.9c0,14.9,0,54.5,0,54.5s-39.3,0-54.5,0c-30.1,0-54.5-24.4-54.5-54.5s24.4-54.5,54.5-54.5
	S253.4,169.8,253.4,199.9z"/>
<path class="st0" d="M471.4,199.9c0,30.1-24.4,54.5-54.5,54.5c-14.3,0-54.5,0-54.5,0s0-38.7,0-54.5c0-30.1,24.4-54.5,54.5-54.5
	S471.4,169.8,471.4,199.9z"/>
<path class="st0" d="M471.4,417.9c0,30.1-24.4,54.5-54.5,54.5s-54.5-24.4-54.5-54.5c0-15,0-54.5,0-54.5s39.5,0,54.5,0
	C447,363.4,471.4,387.8,471.4,417.9z"/>
<path class="st0" d="M253.4,417.9c0,30.1-24.4,54.5-54.5,54.5s-54.5-24.4-54.5-54.5s24.4-54.5,54.5-54.5c15,0,54.5,0,54.5,0
	S253.4,402.8,253.4,417.9z"/>
<rect x="253.4" y="254.4" class="st0" width="109" height="109"/>
</svg>
